Coordinates
version=1
nRows=8
nColumns=40
inDegrees=yes

Units are S.I. units (second, meters, Newtons, ...)
If the header above contains a line with 'inDegrees', this indicates whether rotational values are in degrees (yes) or radians (no).

endheader
time	pelvis_tilt	pelvis_list	pelvis_rotation	pelvis_tx	pelvis_ty	pelvis_tz	hip_flexion_r	hip_adduction_r	hip_rotation_r	knee_angle_r	knee_angle_r_beta	ankle_angle_r	subtalar_angle_r	mtp_angle_r	hip_flexion_l	hip_adduction_l	hip_rotation_l	knee_angle_l	knee_angle_l_beta	ankle_angle_l	subtalar_angle_l	mtp_angle_l	lumbar_extension	lumbar_bending	lumbar_rotation	arm_flex_r	arm_add_r	arm_rot_r	elbow_flex_r	pro_sup_r	wrist_flex_r	wrist_dev_r	arm_flex_l	arm_add_l	arm_rot_l	elbow_flex_l	pro_sup_l	wrist_flex_l	wrist_dev_l
      7.25500000	    -15.23518951	     -0.77039695	     -3.09859315	     -0.30240590	      0.93837734	     -0.90165200	     34.13737017	    -18.57936265	    -17.05422460	     39.61559460	      0.69142256	     13.15997851	      0.00000000	      0.00000000	     36.00544915	    -24.84353451	    -20.58732247	     43.24672511	      0.75479774	     11.86544363	      0.00000000	      0.00000000	    -14.15448326	      0.72239167	      4.80157119	    -39.95561264	    -52.79397104	     30.98641083	     99.95129905	     87.68802513	      0.00000000	      0.00000000	    -28.33316012	    -57.52568087	     38.02408914	    102.78407030	     87.73926951	      0.00000000	      0.00000000
      7.26000000	    -16.25343876	     -0.95636100	     -3.21592111	     -0.30606256	      0.92402159	     -0.90210088	     35.93137111	    -18.52913788	    -16.31498290	     41.09979966	      0.71732683	     16.24994872	      0.00000000	      0.00000000	     37.86872545	    -25.22242597	    -19.85120235	     44.73630869	      0.78079588	     15.85603499	      0.00000000	      0.00000000	    -13.80211446	      1.04695409	      4.96818116	    -39.62006168	    -52.67755755	     31.31370730	     99.55619004	     87.66895486	      0.00000000	      0.00000000	    -28.05993290	    -57.05899722	     38.16688310	    102.28416675	     87.70482634	      0.00000000	      0.00000000
      7.26500000	    -17.84357341	     -1.08481820	     -3.42457555	     -0.31146893	      0.91062371	     -0.90315544	     39.28830884	    -18.58156964	    -15.09542632	     43.92163100	      0.76657707	     18.57271792	      0.00000000	      0.00000000	     40.37783754	    -25.33969352	    -18.51731440	     46.00302117	      0.80290419	     18.89162034	      0.00000000	      0.00000000	    -12.99134827	      1.37796326	      5.21783123	    -38.83050057	    -52.65786912	     31.88320769	     98.86712623	     87.75121271	      0.00000000	      0.00000000	    -27.34077183	    -56.39644329	     38.60407126	    101.44754702	     87.78582311	      0.00000000	      0.00000000
      7.27000000	    -19.33658726	     -1.19734674	     -3.44756899	     -0.31770485	      0.89809632	     -0.90383146	     43.21947071	    -19.01857044	    -14.12856163	     47.62361243	      0.83118884	     19.24453433	      0.00000000	      0.00000000	     43.93289696	    -25.76816800	    -16.78205638	     48.93800292	      0.85412928	     20.77199749	      0.00000000	      0.00000000	    -12.40169441	      1.64826795	      5.31422059	    -37.61622675	    -52.61346006	     32.88618309	     98.16488222	     87.78724184	      0.00000000	      0.00000000	    -26.19517537	    -55.94142215	     39.28713043	    100.60955217	     87.80793368	      0.00000000	      0.00000000
      7.27500000	    -20.32013661	     -1.47177965	     -3.42011102	     -0.32358166	      0.88597784	     -0.90442335	     46.74047808	    -19.28126400	    -12.88584095	     51.36773936	      0.89653618	     19.25128998	      0.00000000	      0.00000000	     47.74283236	    -26.43962350	    -14.53315275	     52.65389737	      0.91898387	     21.63252120	      0.00000000	      0.00000000	    -12.44906767	      2.04711027	      5.40089526	    -36.64127635	    -52.66918536	     33.73006613	     97.79167017	     87.77925040	      0.00000000	      0.00000000	    -25.31400100	    -55.60929574	     39.87214596	     99.93426241	     87.79836794	      0.00000000	      0.00000000
      7.28000000	    -21.09736206	     -1.69437698	     -3.37303008	     -0.32867791	      0.87450509	     -0.90522133	     49.81636178	    -19.71787602	    -12.26721932	     54.84031335	      0.95714403	     19.73613941	      0.00000000	      0.00000000	     51.18490954	    -26.84317251	    -12.34961557	     55.98069369	      0.97704742	     22.03352734	      0.00000000	      0.00000000	    -12.56455533	      2.39083334	      5.50322175	    -35.63269860	    -52.81387653	     34.62300799	     97.42996141	     87.83445549	      0.00000000	      0.00000000	    -24.27649147	    -55.47240689	     40.57008746	     99.34489553	     87.85992954	      0.00000000	      0.00000000
      7.28500000	    -21.88119435	     -2.09311963	     -3.25639182	     -0.33318795	      0.86364757	     -0.90621536	     52.44492287	    -20.00278902	    -12.00499900	     57.79226034	      1.00866523	     19.84510403	      0.00000000	      0.00000000	     54.57768214	    -27.21987207	    -10.19884703	     59.05273604	      1.03066468	     22.29562992	      0.00000000	      0.00000000	    -12.74284325	      2.96809235	      5.54766615	    -34.70042845	    -52.94760397	     35.51616964	     97.08697958	     87.84602647	      0.00000000	      0.00000000	    -23.28168621	    -55.04663697	     41.29326964	     98.55765778	     87.87549497	      0.00000000	      0.00000000
      7.29000000	    -22.44115717	     -2.12869679	     -3.22211088	     -0.33699706	      0.85348337	     -0.90727284	     54.64332386	    -20.60335813	    -11.91978536	     60.31188525	      1.05264098	     20.50129296	      0.00000000	      0.00000000	     57.22635299	    -27.41457539	     -8.99597592	     61.82352484	      1.07902406	     22.59345337	      0.00000000	      0.00000000	    -13.09659556	      3.12648255	      5.59346609	    -33.82467924	    -53.05280950	     36.37942650	     96.82175388	     87.86150498	      0.00000000	      0.00000000	    -22.35195707	    -54.77951331	     42.02578340	     97.88627396	     87.88734223	      0.00000000	      0.00000000
